<svg width="20" height="15" viewBox="0 0 20 15" fill="none" xmlns="http://www.w3.org/2000/svg">
<path d="M1 15C0.447715 15 0 14.5523 0 14V13.5C0 12.9477 0.447715 12.5 1 12.5H19C19.5523 12.5 20 12.9477 20 13.5V14C20 14.5523 19.5523 15 19 15H1ZM1 8.75C0.447715 8.75 0 8.30228 0 7.75V7.25C0 6.69772 0.447715 6.25 1 6.25H19C19.5523 6.25 20 6.69772 20 7.25V7.75C20 8.30228 19.5523 8.75 19 8.75H1ZM1 2.5C0.447715 2.5 0 2.05228 0 1.5V1C0 0.447715 0.447715 0 1 0H19C19.5523 0 20 0.447715 20 1V1.5C20 2.05228 19.5523 2.5 19 2.5H1Z" fill="black" fill-opacity="0.5"/>
</svg>
