<svg width="21" height="20" viewBox="0 0 21 20" fill="none" xmlns="http://www.w3.org/2000/svg">
<path d="M20.1435 19.2601C19.7085 19.6745 19.0249 19.6745 18.5898 19.2601L13.2516 14.1761C12.5401 13.4985 11.4472 13.4649 10.5431 13.8495C10.3686 13.9237 10.189 13.9924 10.0042 14.0556C9.24583 14.3148 8.43889 14.4444 7.58333 14.4444C5.46389 14.4444 3.67014 13.7454 2.20208 12.3472C0.734028 10.9491 0 9.24074 0 7.22222C0 5.2037 0.734028 3.49537 2.20208 2.09722C3.67014 0.699074 5.46389 0 7.58333 0C9.70278 0 11.4965 0.699074 12.9646 2.09722C14.4326 3.49537 15.1667 5.2037 15.1667 7.22222C15.1667 8.03704 15.0306 8.80556 14.7583 9.52778C14.7174 9.6365 14.6742 9.74333 14.6288 9.84828C14.2095 10.8177 14.2459 12.0119 15.0107 12.7403L20.1435 17.6288C20.6096 18.0727 20.6096 18.8162 20.1435 19.2601ZM7.58333 12.2222C9.04167 12.2222 10.2812 11.7361 11.3021 10.7639C12.3229 9.79167 12.8333 8.61111 12.8333 7.22222C12.8333 5.83333 12.3229 4.65278 11.3021 3.68056C10.2812 2.70833 9.04167 2.22222 7.58333 2.22222C6.125 2.22222 4.88542 2.70833 3.86458 3.68056C2.84375 4.65278 2.33333 5.83333 2.33333 7.22222C2.33333 8.61111 2.84375 9.79167 3.86458 10.7639C4.88542 11.7361 6.125 12.2222 7.58333 12.2222Z" fill="#A5A5A5"/>
</svg>
